<?xml version="1.0" standalone="no"?>
<!DOCTYPE svg PUBLIC "-//W3C//DTD SVG 20010904//EN"
 "http://www.w3.org/TR/2001/REC-SVG-20010904/DTD/svg10.dtd">
<svg version="1.0" xmlns="http://www.w3.org/2000/svg"
 width="626.000000pt" height="475.000000pt" viewBox="0 0 626.000000 475.000000"
 preserveAspectRatio="xMidYMid meet">

<g transform="translate(0.000000,475.000000) scale(0.100000,-0.100000)"
fill="#000000" stroke="none">
<path d="M2953 4585 c-31 -13 -38 -23 -34 -52 1 -7 -4 -13 -11 -13 -7 -1 -2
-10 11 -21 19 -16 33 -18 65 -14 33 5 47 2 68 -14 15 -12 30 -31 33 -42 7 -21
7 -21 31 2 26 24 33 84 14 120 -25 45 -113 62 -177 34z"/>
<path d="M5118 4584 c-53 -22 -85 -90 -69 -144 6 -21 18 -43 26 -50 13 -11 14
-10 10 2 -11 27 36 65 85 72 l46 5 13 -45 c7 -24 11 -53 8 -64 -4 -16 -2 -18
11 -11 10 5 28 21 42 36 50 54 23 162 -50 200 -36 19 -75 18 -122 -1z"/>
<path d="M3035 4450 c3 -5 11 -10 16 -10 6 0 7 5 4 10 -3 6 -11 10 -16 10 -6
0 -7 -4 -4 -10z"/>
<path d="M1080 4430 c0 -5 5 -10 10 -10 6 0 10 5 10 10 0 6 -4 10 -10 10 -5 0
-10 -4 -10 -10z"/>
<path d="M1170 4420 c0 -5 5 -10 10 -10 6 0 10 5 10 10 0 6 -4 10 -10 10 -5 0
-10 -4 -10 -10z"/>
<path d="M5095 4410 c-3 -6 1 -7 9 -4 18 7 21 14 7 14 -6 0 -13 -4 -16 -10z"/>
<path d="M5180 4416 c0 -2 9 -6 20 -9 11 -3 20 -1 20 4 0 5 -9 9 -20 9 -11 0
-20 -2 -20 -4z"/>
<path d="M5110 4390 c0 -5 5 -10 11 -10 5 0 7 5 4 10 -3 6 -8 10 -11 10 -2 0
-4 -4 -4 -10z"/>
<path d="M910 4330 c0 -18 -5 -20 -37 -16 l-38 6 37 -16 38 -17 -1 -71 c-1
-90 -7 -119 -25 -112 -8 3 -14 1 -14 -4 0 -6 7 -10 15 -10 16 0 18 -12 9 -59
-7 -32 -10 -33 -61 -14 -7 3 -13 1 -13 -5 0 -5 16 -13 35 -16 32 -6 34 -9 29
-39 -10 -57 -10 -57 -43 -46 -17 6 -36 9 -43 6 -7 -2 6 -10 29 -17 40 -12 41
-14 37 -49 l-4 -36 12 33 c11 32 13 33 52 26 23 -3 42 -7 43 -8 1 -1 -3 -21
-9 -44 -9 -38 -13 -41 -36 -35 -17 4 -23 2 -18 -6 4 -6 14 -11 23 -11 10 0 14
-6 10 -20 -7 -25 10 -26 18 -1 3 11 13 18 23 16 9 -2 29 -6 45 -10 l27 -5 -15
-38 c-9 -20 -20 -39 -26 -40 -5 -2 -7 -8 -3 -13 11 -18 -7 -48 -37 -58 -27 -9
-31 -8 -40 17 -18 47 -70 91 -114 96 -5 1 -25 5 -43 10 -27 6 -33 12 -29 27 6
22 -8 26 -16 5 -4 -9 -14 -12 -28 -9 -15 4 -20 3 -15 -5 4 -7 13 -12 21 -12 8
0 11 -7 8 -20 -3 -11 -11 -20 -18 -20 -27 0 -38 -134 -32 -385 6 -249 40 -657
57 -687 6 -10 10 -31 10 -47 0 -31 1 -32 98 -46 54 -9 55 7 3 39 -48 31 -59
46 -32 46 12 0 21 6 21 13 0 7 13 177 30 377 16 201 30 371 30 379 0 8 3 12 6
9 3 -3 16 -180 29 -394 17 -267 28 -390 36 -395 8 -5 10 -28 7 -73 -6 -65 -5
-66 19 -66 19 0 24 4 19 16 -3 9 -6 28 -6 42 0 22 -2 24 -11 12 -9 -13 -10
-13 -6 0 2 8 10 14 16 12 7 -1 39 -6 72 -11 67 -9 77 2 29 34 l-30 20 -2 539
c-2 396 -6 540 -14 543 -9 3 -8 15 4 44 13 34 19 40 39 36 13 -2 23 0 23 4 0
5 -10 9 -21 9 -19 0 -21 4 -14 37 9 50 13 55 36 48 11 -4 19 -2 19 4 0 6 -9
11 -21 11 -15 0 -19 4 -15 16 3 9 6 27 6 40 0 17 6 24 20 24 11 0 20 5 20 10
0 6 -7 10 -16 10 -13 0 -15 7 -10 31 3 17 6 35 6 40 0 5 10 9 23 10 l22 0 -23
11 c-13 7 -21 17 -17 26 3 7 5 24 5 37 0 18 6 25 28 28 l27 4 -27 2 c-26 1
-28 4 -28 45 0 38 3 45 23 49 19 4 18 4 -5 6 -27 1 -28 -1 -28 -44 0 -25 -5
-45 -11 -45 -5 0 -7 -6 -3 -12 11 -17 5 -82 -7 -86 -6 -3 -6 -9 -1 -15 15 -20
2 -87 -17 -87 -12 0 -13 -2 -3 -8 9 -6 11 -21 6 -49 l-6 -41 -42 5 c-22 3 -42
7 -44 8 -1 1 0 21 4 44 6 40 8 42 35 36 18 -4 29 -2 29 4 0 6 -11 11 -25 11
-21 0 -25 5 -25 31 0 17 4 38 8 47 5 9 5 31 1 47 -5 24 -7 25 -8 8 -1 -24 -10
-27 -60 -17 -29 6 -31 9 -31 50 0 48 0 48 48 35 17 -5 32 -6 32 -1 0 4 -17 12
-37 17 -36 8 -38 11 -41 51 -3 40 -2 42 25 43 l28 1 -28 10 c-23 8 -28 15 -24
34 2 13 0 24 -4 24 -5 0 -9 -9 -9 -20z m53 -261 c36 -10 38 -12 35 -47 -3 -35
-5 -37 -36 -36 -53 3 -58 8 -54 53 5 46 3 45 55 30z m19 -105 c6 -4 0 -73 -7
-82 -1 -1 -21 0 -44 4 -43 7 -49 19 -35 72 6 20 11 22 43 16 20 -4 39 -8 43
-10z m85 -118 c2 -1 0 -17 -3 -35 -8 -38 -22 -46 -68 -37 l-33 6 11 41 c11 41
11 41 50 34 22 -3 42 -7 43 -9z m-281 -142 c41 -10 26 -25 -18 -18 -50 8 -52
9 -43 24 4 6 14 9 22 6 8 -4 26 -9 39 -12z m67 -21 c-7 -2 -19 -2 -25 0 -7 3
-2 5 12 5 14 0 19 -2 13 -5z"/>
<path d="M3520 4321 c0 -6 5 -13 10 -16 6 -3 10 1 10 9 0 9 -4 16 -10 16 -5 0
-10 -4 -10 -9z"/>
<path d="M3445 4310 c3 -5 8 -10 11 -10 2 0 4 5 4 10 0 6 -5 10 -11 10 -5 0
-7 -4 -4 -10z"/>
<path d="M3189 4241 c-36 -29 -31 -98 15 -191 44 -91 46 -117 9 -126 -16 -4
-30 -10 -33 -14 -3 -4 -24 -11 -47 -15 -34 -5 -43 -4 -43 8 0 11 -8 13 -31 8
-16 -3 -30 -9 -30 -14 1 -4 1 -25 1 -47 l0 -40 115 0 c188 0 219 24 219 169 0
105 -28 187 -84 244 -42 42 -58 45 -91 18z"/>
<path d="M2914 4213 c-14 -22 -19 -49 -21 -118 l-1 -90 8 81 c5 44 15 97 24
117 18 44 15 47 -10 10z"/>
<path d="M3545 4200 c-3 -5 -15 -10 -26 -10 -11 0 -19 -7 -19 -18 0 -9 -9 -23
-20 -29 -26 -17 -44 -54 -66 -143 -16 -64 -19 -110 -18 -315 1 -139 6 -257 12
-279 9 -31 8 -62 -4 -135 -19 -112 -8 -305 17 -322 5 -3 12 -76 16 -162 l6
-157 -32 0 c-19 0 -30 -4 -26 -10 3 -5 17 -10 29 -10 17 0 25 -7 28 -25 3 -13
1 -22 -3 -19 -5 3 -9 0 -9 -5 0 -6 9 -11 21 -11 18 0 20 4 15 25 -6 22 -3 25
23 25 16 0 33 5 36 10 4 6 -8 10 -29 10 l-36 0 0 159 0 160 33 -10 c17 -5 84
-12 148 -16 117 -6 172 3 250 43 l25 13 -23 203 c-12 112 -20 211 -17 221 7
24 -14 377 -31 509 -16 124 -29 176 -50 203 -13 18 -13 16 0 -17 20 -51 19
-130 -4 -221 -35 -134 -55 -169 -127 -221 l-65 -47 2 -47 3 -47 -54 0 c-41 0
-58 -5 -68 -17 -25 -34 -72 -16 -72 27 0 12 11 32 25 45 25 23 25 25 25 199 1
239 18 376 49 386 15 4 59 65 47 65 -3 0 -8 -4 -11 -10z m-108 -852 c-3 -8 -6
-5 -6 6 -1 11 2 17 5 13 3 -3 4 -12 1 -19z"/>
<path d="M3636 4179 c-36 -56 -61 -227 -51 -355 l7 -93 23 22 c30 29 45 113
45 247 0 98 2 108 23 128 26 25 48 27 80 11 17 -9 15 -4 -8 20 -19 19 -45 34
-67 37 -30 5 -38 3 -52 -17z"/>
<path d="M1400 4155 c0 -8 5 -15 10 -15 6 0 10 7 10 15 0 8 -4 15 -10 15 -5 0
-10 -7 -10 -15z"/>
<path d="M1325 4150 c3 -5 8 -10 11 -10 2 0 4 5 4 10 0 6 -5 10 -11 10 -5 0
-7 -4 -4 -10z"/>
<path d="M1564 4019 c-29 -32 -26 -163 7 -249 21 -58 24 -80 24 -215 l0 -150
-85 -3 c-47 -2 -120 2 -163 8 -44 6 -81 9 -83 7 -5 -5 -37 -257 -49 -383 l-7
-71 99 -19 c147 -28 355 -26 450 4 40 12 74 26 77 30 2 4 -14 115 -35 247 -21
132 -38 242 -39 244 0 2 -9 -8 -21 -23 -26 -33 -51 -35 -44 -3 57 264 39 484
-49 572 -31 31 -57 32 -82 4z m117 -694 c4 -17 7 -43 8 -60 0 -23 -2 -26 -9
-15 -8 12 -10 10 -10 -10 -1 -24 -1 -24 -15 -6 -14 18 -15 19 -15 2 0 -12 -5
-16 -14 -13 -8 3 -17 1 -20 -6 -2 -7 -5 8 -5 32 -1 41 -2 43 -15 25 -20 -27
-28 -13 -15 27 17 50 25 56 66 54 33 -1 39 -4 44 -30z"/>
<path d="M1344 4004 c-18 -14 -18 -15 4 -4 12 6 22 13 22 15 0 8 -5 6 -26 -11z"/>
<path d="M2882 3943 c-1 -17 -27 -84 -57 -148 -30 -65 -55 -120 -55 -124 0 -3
13 -14 30 -23 l29 -17 31 50 c32 53 40 121 19 161 -8 15 -8 26 1 43 6 12 10
37 7 56 l-4 34 -1 -32z"/>
<path d="M5063 3735 c-10 -25 -18 -78 -21 -140 -3 -87 -1 -107 18 -150 l22
-50 24 47 c21 42 69 88 91 88 16 0 59 85 77 150 9 36 19 72 22 80 3 13 -13 15
-106 15 l-110 0 -17 -40z"/>
<path d="M4640 3740 c0 -5 5 -10 10 -10 6 0 10 5 10 10 0 6 -4 10 -10 10 -5 0
-10 -4 -10 -10z"/>
<path d="M4715 3740 c-3 -5 -1 -10 4 -10 6 0 11 5 11 10 0 6 -2 10 -4 10 -3 0
-8 -4 -11 -10z"/>
<path d="M5336 3661 c-39 -78 -42 -111 -11 -111 38 0 -1 -48 -54 -65 -16 -5
-26 -3 -32 6 -21 33 -98 -45 -118 -119 -6 -19 -15 -69 -22 -111 -17 -119 -18
-121 -37 -121 -15 0 -17 7 -14 35 4 37 -5 42 -55 29 -18 -5 -23 -14 -23 -40 0
-27 4 -34 20 -34 17 0 11 -9 -28 -47 -27 -27 -56 -60 -65 -75 -12 -20 -28 -28
-61 -33 l-44 -7 -7 -84 c-8 -96 0 -126 10 -37 3 32 7 65 8 73 1 9 15 16 36 18
29 3 33 1 27 -15 -4 -10 -10 -43 -13 -73 -3 -30 -11 -58 -17 -62 -8 -5 -7 -8
2 -8 7 0 12 -13 12 -30 0 -50 39 -152 75 -196 59 -72 152 -97 224 -60 17 9 31
18 31 19 0 1 -36 2 -79 2 -77 0 -81 1 -115 34 -38 37 -44 55 -23 65 6 3 2 4
-9 1 -19 -5 -23 2 -37 52 -27 97 -15 272 20 291 8 5 17 22 18 37 6 53 106 125
173 125 36 0 32 -12 61 198 10 73 20 135 23 137 2 3 16 -89 31 -204 15 -127
32 -219 41 -233 30 -47 48 -137 44 -219 -3 -75 -2 -79 18 -79 19 0 23 8 33 78
29 202 35 296 35 537 1 246 -8 346 -33 393 -4 7 -22 -19 -45 -67z"/>
<path d="M4736 3635 c-10 -8 -22 -12 -26 -10 -10 6 -22 -24 -15 -35 9 -15 35
1 51 31 17 33 16 34 -10 14z"/>
<path d="M1217 3544 c-20 -41 -37 -78 -37 -83 0 -5 14 -14 31 -20 40 -14 38
-14 32 8 -3 11 0 52 6 91 7 40 10 74 8 76 -1 2 -20 -30 -40 -72z"/>
<path d="M4881 3569 c-60 -72 -176 -104 -220 -60 -24 24 -31 11 -31 -53 0 -35
6 -48 40 -84 43 -44 49 -62 25 -82 -27 -22 -16 -28 59 -35 67 -6 82 -4 146 20
76 29 100 47 100 73 0 9 -25 55 -55 101 -30 46 -55 92 -55 103 0 12 12 24 31
32 25 10 28 14 14 20 -9 3 -17 6 -18 6 -1 0 -17 -19 -36 -41z"/>
<path d="M2780 3590 c8 -5 20 -10 25 -10 6 0 3 5 -5 10 -8 5 -19 10 -25 10 -5
0 -3 -5 5 -10z"/>
<path d="M2459 3359 c-52 -117 -95 -215 -97 -220 -4 -10 58 -42 66 -34 4 3 37
102 73 218 62 201 67 212 90 211 13 0 35 -3 49 -7 14 -4 5 4 -20 17 -25 14
-50 25 -56 26 -6 0 -53 -95 -105 -211z"/>
<path d="M2866 3525 c-18 -47 -72 -264 -81 -329 -4 -25 -2 -109 4 -188 17
-217 19 -226 42 -230 35 -5 25 -22 -28 -47 -29 -14 -53 -28 -53 -32 0 -4 32
-9 70 -11 l70 -3 0 33 c0 25 5 35 19 39 17 4 19 24 31 211 11 185 16 220 47
327 45 155 43 149 49 143 4 -4 124 -665 124 -683 0 -3 7 -5 15 -5 27 0 16 -18
-30 -50 -49 -34 -57 -49 -22 -44 12 2 44 6 71 9 l48 7 -6 38 c-3 21 -2 40 3
42 25 8 48 363 32 468 -13 79 -15 237 -5 306 l6 41 -196 -1 -195 -1 -15 -40z"/>
<path d="M4839 3553 c-13 -16 -12 -17 4 -4 16 13 21 21 13 21 -2 0 -10 -8 -17
-17z"/>
<path d="M4670 3520 c0 -6 7 -10 15 -10 8 0 15 2 15 4 0 2 -7 6 -15 10 -8 3
-15 1 -15 -4z"/>
<path d="M4758 3513 c7 -3 16 -2 19 1 4 3 -2 6 -13 5 -11 0 -14 -3 -6 -6z"/>
<path d="M4532 3227 c-30 -11 -51 -31 -52 -49 0 -7 116 44 128 56 10 10 -42 5
-76 -7z"/>
<path d="M4377 3045 c-25 -68 -32 -168 -18 -237 7 -32 15 -58 17 -58 3 0 14 5
26 11 15 8 18 16 13 37 -4 15 -10 88 -14 162 l-6 135 -18 -50z"/>
<path d="M5110 3080 c-22 -5 -26 -13 -33 -65 -4 -33 -6 -84 -4 -113 3 -48 2
-53 -20 -58 -28 -7 -31 -44 -4 -51 16 -4 18 -11 14 -44 -5 -35 -3 -39 16 -39
16 0 23 8 27 29 4 17 12 32 20 35 16 6 19 57 5 71 -8 9 15 213 25 224 10 10
65 -56 86 -103 19 -43 23 -68 23 -156 0 -96 -2 -110 -30 -165 -16 -33 -31 -64
-33 -70 -3 -5 5 -1 18 10 31 28 58 85 66 137 3 23 10 53 16 65 26 54 -38 237
-95 273 -31 19 -69 27 -97 20z"/>
<path d="M5026 3012 c-3 -5 -1 -30 4 -58 l8 -49 -1 58 c0 57 -2 64 -11 49z"/>
<path d="M4730 2850 c0 -11 7 -20 15 -20 8 0 15 9 15 20 0 11 -7 20 -15 20 -8
0 -15 -9 -15 -20z"/>
<path d="M4731 2723 c-10 -21 -28 -47 -40 -57 -12 -11 -21 -29 -21 -40 1 -36
77 56 82 99 2 19 3 35 1 35 -1 0 -11 -17 -22 -37z"/>
<path d="M4397 2723 c-11 -10 -8 -43 3 -43 6 0 10 11 10 25 0 26 -2 29 -13 18z"/>
<path d="M4324 2685 c-12 -19 -15 -37 -9 -83 l7 -59 185 -43 c153 -35 189 -40
210 -31 20 9 28 9 37 -3 24 -31 72 -23 92 15 31 61 -7 137 -62 123 -14 -4 -30
-15 -37 -24 -8 -13 -19 -17 -42 -13 -28 5 -32 3 -31 -18 1 -28 -29 -35 -103
-24 l-46 7 48 24 c61 31 64 59 7 60 -22 1 -51 9 -66 19 -32 20 -44 9 -44 -42
l0 -33 -70 0 c-40 0 -70 4 -70 10 0 6 7 10 16 10 14 0 14 1 0 16 -20 19 -20
54 -1 80 17 22 19 34 5 34 -5 0 -17 -11 -26 -25z m514 -153 c4 -37 -12 -62
-38 -62 -23 0 -48 29 -33 38 5 4 9 20 9 35 -2 25 1 28 29 25 26 -3 30 -7 33
-36z"/>
<path d="M4498 2673 c7 -3 16 -2 19 1 4 3 -2 6 -13 5 -11 0 -14 -3 -6 -6z"/>
<path d="M5064 2656 c-10 -8 -16 -17 -13 -20 10 -10 39 5 39 20 0 17 -2 17
-26 0z"/>
<path d="M5310 2633 c0 -17 8 -41 19 -54 16 -20 21 -22 35 -10 24 20 17 67 -8
63 -11 -2 -26 4 -33 14 -12 16 -13 15 -13 -13z"/>
<path d="M3850 2630 c-8 -6 -33 -10 -55 -10 -41 0 -75 -14 -63 -25 7 -7 109
13 129 26 8 4 11 10 8 13 -2 3 -11 1 -19 -4z"/>
<path d="M1402 2568 c-24 -17 -46 -27 -49 -24 -7 7 -43 -23 -43 -36 0 -27 124
35 137 69 9 24 -1 22 -45 -9z"/>
<path d="M1645 2544 c-23 -14 -49 -22 -60 -20 -24 6 -54 -29 -32 -37 28 -9
137 45 137 69 0 17 3 18 -45 -12z"/>
<path d="M1268 2100 c-50 -33 -63 -57 -54 -96 4 -13 1 -32 -6 -43 -9 -15 -9
-23 1 -35 22 -26 41 -19 41 14 0 22 5 30 18 29 10 0 12 -3 5 -6 -7 -2 -13 -9
-13 -14 0 -5 13 -3 30 6 33 17 120 20 120 4 0 -5 4 -8 10 -4 5 3 7 -14 3 -45
-6 -49 -5 -50 20 -50 30 0 57 24 57 51 0 11 -7 36 -15 56 -8 19 -15 50 -15 69
0 54 -36 86 -101 91 -48 4 -59 1 -101 -27z"/>
<path d="M4800 2069 c-67 -28 -83 -79 -50 -158 13 -28 25 -51 29 -51 3 0 14
14 23 30 21 37 44 47 69 32 15 -10 23 -8 39 8 11 11 27 20 35 20 40 0 23 75
-23 102 -37 22 -92 30 -122 17z"/>
<path d="M3380 2030 c0 -5 5 -10 10 -10 6 0 10 5 10 10 0 6 -4 10 -10 10 -5 0
-10 -4 -10 -10z"/>
<path d="M1280 1924 c0 -8 5 -12 10 -9 6 4 8 11 5 16 -9 14 -15 11 -15 -7z"/>
<path d="M1360 1926 c0 -9 5 -16 10 -16 6 0 10 4 10 9 0 6 -4 13 -10 16 -5 3
-10 -1 -10 -9z"/>
<path d="M1010 1890 c-27 -50 64 -109 100 -65 10 12 10 21 0 45 -12 28 -38 45
-27 18 3 -8 -4 -13 -19 -13 -18 0 -22 4 -18 18 8 24 -23 22 -36 -3z"/>
<path d="M971 1858 c-1 -23 -6 -28 -38 -33 -21 -3 -49 -12 -63 -19 -14 -8 -40
-17 -58 -21 -19 -4 -53 -25 -77 -48 -45 -45 -54 -67 -94 -240 -16 -72 -28 -97
-64 -145 -52 -66 -55 -76 -62 -167 -8 -99 3 -121 107 -216 85 -78 229 -245
240 -279 3 -8 6 10 6 40 1 30 7 99 12 154 11 92 10 102 -10 148 -21 48 -21 51
-4 101 9 29 19 55 21 60 2 4 25 -9 50 -30 26 -21 56 -37 72 -38 21 0 25 -4 23
-22 -2 -18 3 -22 35 -27 67 -10 201 -10 175 1 -10 4 -10 8 0 20 11 14 8 15
-21 8 -18 -4 -43 -3 -55 3 -54 25 -78 32 -88 26 -7 -4 -8 -2 -4 4 4 7 2 12 -3
12 -6 0 -11 8 -11 19 0 10 -20 35 -46 56 -25 20 -43 39 -40 42 2 3 40 -13 83
-35 79 -39 128 -50 260 -55 33 -1 59 2 56 7 -3 4 0 12 7 16 7 4 -25 13 -74 20
-58 9 -86 18 -86 26 0 8 -35 33 -77 56 -43 23 -97 60 -120 81 -38 35 -41 40
-32 70 19 67 4 247 -19 233 -12 -7 -12 98 -1 126 6 14 9 37 6 50 -4 21 -4 21
-6 -4z"/>
<path d="M2591 1814 c0 -11 3 -14 6 -6 3 7 2 16 -1 19 -3 4 -6 -2 -5 -13z"/>
<path d="M1314 1805 c25 -19 28 -19 52 1 19 15 19 15 0 6 -12 -6 -30 -7 -45
-1 -25 9 -25 8 -7 -6z"/>
<path d="M4715 1760 c-10 -11 -16 -22 -14 -24 2 -2 12 7 22 20 22 29 17 32 -8
4z"/>
<path d="M4880 1770 c0 -5 5 -10 11 -10 5 0 7 5 4 10 -3 6 -8 10 -11 10 -2 0
-4 -4 -4 -10z"/>
<path d="M5264 1765 c-5 -12 -14 -15 -33 -10 -14 4 -23 3 -19 0 4 -4 1 -14 -7
-22 -17 -17 -19 -33 -5 -33 6 0 10 -14 10 -31 0 -17 4 -28 10 -24 5 3 7 0 4
-9 -4 -12 5 -15 43 -18 41 -3 48 -6 51 -25 3 -19 -1 -23 -21 -23 -33 0 -55
-28 -83 -105 -30 -81 -31 -112 -4 -120 11 -3 20 -11 20 -16 0 -24 -32 -69 -57
-81 -35 -17 -51 -59 -35 -90 12 -21 12 -21 7 10 -4 30 -3 32 11 17 12 -12 15
-27 10 -58 -3 -23 -6 -140 -7 -259 -2 -191 -4 -218 -18 -218 -12 0 -13 -2 -3
-9 10 -6 12 -58 10 -244 -3 -205 -1 -237 12 -237 13 0 15 32 13 241 -2 181 0
238 9 233 8 -5 9 -2 4 12 -8 21 -9 514 -1 523 3 2 13 -5 21 -18 23 -32 88 -51
179 -52 37 -1 118 21 135 36 32 29 54 112 55 205 0 105 -21 165 -76 214 -38
35 -49 40 -79 37 -12 -1 -12 0 -2 7 10 7 10 11 -3 22 -8 7 -15 21 -15 31 0 19
-34 44 -60 44 -8 0 -15 5 -15 12 0 15 -13 28 -28 28 -7 0 -11 8 -9 17 4 23
-17 33 -24 13z m262 -331 c-3 -18 -33 -44 -50 -44 -6 0 -4 5 4 10 13 9 13 10
0 10 -11 0 23 28 47 39 1 1 0 -6 -1 -15z m-69 -30 c-3 -3 -12 -4 -19 -1 -8 3
-5 6 6 6 11 1 17 -2 13 -5z m-120 -160 c-3 -3 -12 -4 -19 -1 -8 3 -5 6 6 6 11
1 17 -2 13 -5z m146 -51 c-7 -2 -21 -2 -30 0 -10 3 -4 5 12 5 17 0 24 -2 18
-5z"/>
<path d="M5500 1420 c-9 -6 -10 -10 -3 -10 6 0 15 5 18 10 8 12 4 12 -15 0z"/>
<path d="M2780 1689 c-19 -45 -58 -89 -80 -89 -11 0 -22 -11 -28 -27 -5 -16
-28 -52 -51 -82 -23 -30 -41 -58 -41 -62 0 -4 10 -25 22 -45 15 -26 18 -39 10
-42 -16 -5 -15 -52 2 -71 14 -16 14 -20 -30 -177 -7 -28 43 -44 163 -51 101
-6 191 7 262 38 l44 19 -8 93 c-24 319 -98 491 -226 522 -22 6 -28 2 -39 -26z"/>
<path d="M4693 1685 c0 -22 2 -30 4 -17 2 12 2 30 0 40 -3 9 -5 -1 -4 -23z"/>
<path d="M2723 1654 c-20 -23 -26 -34 -15 -32 9 2 24 18 35 36 24 40 20 40
-20 -4z"/>
<path d="M4731 1620 c14 -31 19 -36 19 -24 0 6 -7 19 -16 30 -14 18 -14 18 -3
-6z"/>
<path d="M4920 1565 c-6 -8 -9 -19 -5 -25 8 -13 35 -13 35 0 0 5 -7 7 -16 3
-12 -4 -15 -2 -12 8 3 8 11 13 17 11 7 -1 10 2 6 8 -8 13 -10 13 -25 -5z"/>
<path d="M4682 1520 c0 -14 2 -19 5 -12 2 6 2 18 0 25 -3 6 -5 1 -5 -13z"/>
<path d="M4687 1265 c-21 -7 -41 -16 -44 -19 -12 -12 42 -111 80 -148 l38 -37
-7 -83 c-4 -46 -12 -86 -18 -90 -6 -4 -44 -8 -84 -8 l-74 0 6 -27 c16 -77 56
-502 56 -590 0 -24 5 -43 10 -43 6 0 10 -11 10 -24 0 -18 7 -25 31 -30 73 -14
105 -1 53 23 -23 10 -25 16 -20 49 3 20 15 168 27 327 11 160 25 299 30 310 6
14 8 -1 4 -45 -2 -36 -7 -162 -10 -280 -3 -118 -8 -239 -11 -267 -4 -44 -3
-53 10 -53 10 0 16 -9 16 -25 0 -20 5 -25 24 -25 13 0 38 -3 55 -6 41 -8 41
10 0 32 -18 9 -27 19 -21 23 9 6 62 394 78 574 l7 77 -43 0 -43 0 5 174 6 174
-38 -5 c-35 -5 -38 -3 -48 26 -12 35 -26 37 -85 16z"/>
<path d="M2492 1254 c-12 -8 -22 -20 -22 -26 0 -6 6 -6 15 2 13 10 19 10 33
-4 19 -17 32 -12 32 10 0 24 -35 35 -58 18z"/>
<path d="M3550 1219 c-72 -60 -100 -91 -100 -114 0 -29 -16 -41 -35 -25 -12
10 -16 9 -21 -6 -4 -11 -13 -35 -21 -54 -40 -100 -133 -553 -133 -649 0 -44
24 -71 62 -71 34 0 53 24 73 95 23 79 54 139 116 221 29 38 55 73 59 77 4 5
16 -9 27 -30 11 -21 51 -92 88 -158 38 -66 78 -143 91 -171 23 -53 48 -69 79
-52 20 12 35 -4 35 -37 0 -15 -10 -25 -36 -34 -19 -7 -34 -15 -32 -17 8 -8 87
29 82 38 -4 5 -7 67 -9 136 -2 120 -5 135 -48 270 -52 164 -71 268 -63 356 3
33 8 95 11 136 l7 75 -74 18 c-95 22 -127 21 -158 -4z"/>
<path d="M4507 1148 c8 -29 22 -69 30 -89 l14 -37 46 12 c50 13 66 30 34 39
-10 2 -41 32 -67 66 -60 78 -79 81 -57 9z"/>
<path d="M2446 1138 c-4 -29 -7 -252 -9 -496 -2 -415 -1 -442 16 -442 16 0 17
30 17 495 0 298 -4 495 -9 495 -5 0 -12 -24 -15 -52z"/>
<path d="M1480 1166 c0 -2 8 -10 18 -17 15 -13 16 -12 3 4 -13 16 -21 21 -21
13z"/>
<path d="M5490 1070 c-13 -8 -12 -10 3 -10 9 0 17 5 17 10 0 12 -1 12 -20 0z"/>
<path d="M1522 1036 c-9 -21 -42 -40 -142 -83 -22 -9 -23 -12 -8 -18 11 -4 47
7 98 31 78 36 90 47 70 59 -5 3 -7 12 -3 20 9 25 -3 17 -15 -9z"/>
<path d="M5290 1043 c0 -4 5 -15 10 -23 8 -13 10 -13 10 2 0 9 -4 20 -10 23
-5 3 -10 3 -10 -2z"/>
<path d="M5380 1046 c0 -2 7 -6 15 -10 8 -3 15 -1 15 4 0 6 -7 10 -15 10 -8 0
-15 -2 -15 -4z"/>
<path d="M5526 965 c4 -8 8 -15 10 -15 2 0 4 7 4 15 0 8 -4 15 -10 15 -5 0 -7
-7 -4 -15z"/>
<path d="M5320 951 c0 -5 -10 -12 -22 -14 -17 -3 -14 -5 9 -6 25 -1 31 2 27
14 -7 17 -14 20 -14 6z"/>
<path d="M5426 945 c4 -8 7 -15 9 -15 2 0 5 7 9 15 3 9 0 15 -9 15 -9 0 -12
-6 -9 -15z"/>
<path d="M5378 943 c7 -3 16 -2 19 1 4 3 -2 6 -13 5 -11 0 -14 -3 -6 -6z"/>
<path d="M916 888 c-3 -13 -6 -36 -6 -53 0 -27 3 -30 30 -30 17 0 30 1 30 2 0
0 -11 24 -24 52 -21 45 -24 49 -30 29z"/>
<path d="M1173 893 c20 -2 54 -2 75 0 20 2 3 4 -38 4 -41 0 -58 -2 -37 -4z"/>
<path d="M1408 883 c12 -2 30 -2 40 0 9 3 -1 5 -23 4 -22 0 -30 -2 -17 -4z"/>
<path d="M5550 879 c0 -5 5 -7 10 -4 6 3 10 8 10 11 0 2 -4 4 -10 4 -5 0 -10
-5 -10 -11z"/>
<path d="M5435 860 c-19 -8 -19 -9 3 -9 12 -1 22 4 22 9 0 6 -1 10 -2 9 -2 0
-12 -4 -23 -9z"/>
<path d="M5236 833 c5 -5 12 -12 16 -18 4 -6 8 -2 8 8 0 9 -7 17 -17 17 -9 0
-12 -3 -7 -7z"/>
<path d="M5561 824 c0 -11 3 -14 6 -6 3 7 2 16 -1 19 -3 4 -6 -2 -5 -13z"/>
<path d="M5461 814 c0 -11 3 -14 6 -6 3 7 2 16 -1 19 -3 4 -6 -2 -5 -13z"/>
<path d="M5361 794 c0 -11 3 -14 6 -6 3 7 2 16 -1 19 -3 4 -6 -2 -5 -13z"/>
<path d="M1018 783 c7 -3 16 -2 19 1 4 3 -2 6 -13 5 -11 0 -14 -3 -6 -6z"/>
<path d="M1098 783 c12 -2 32 -2 45 0 12 2 2 4 -23 4 -25 0 -35 -2 -22 -4z"/>
<path d="M911 761 c-6 -11 -11 -37 -11 -59 0 -21 -5 -74 -10 -118 -8 -54 -8
-119 -1 -204 14 -179 6 -164 91 -172 41 -4 75 -6 78 -4 2 3 -19 16 -47 31 -43
21 -50 28 -42 43 5 10 11 126 13 258 l3 239 -32 3 c-23 2 -34 -2 -42 -17z"/>
<path d="M1233 773 c9 -2 25 -2 35 0 9 3 1 5 -18 5 -19 0 -27 -2 -17 -5z"/>
<path d="M5466 755 c4 -8 7 -15 9 -15 2 0 5 7 9 15 3 9 0 15 -9 15 -9 0 -12
-6 -9 -15z"/>
<path d="M5350 750 c-23 -7 -23 -8 -3 -9 12 -1 24 -7 26 -13 3 -7 6 -3 6 10 1
12 0 22 -1 21 -2 -1 -14 -5 -28 -9z"/>
<path d="M5272 730 c0 -14 2 -19 5 -12 2 6 2 18 0 25 -3 6 -5 1 -5 -13z"/>
<path d="M5208 733 c6 -2 18 -2 25 0 6 3 1 5 -13 5 -14 0 -19 -2 -12 -5z"/>
<path d="M5570 690 c-13 -8 -12 -10 3 -10 9 0 17 5 17 10 0 12 -1 12 -20 0z"/>
<path d="M5381 669 c-1 -24 2 -26 27 -20 24 5 25 6 5 9 -12 2 -24 11 -26 20
-3 10 -5 7 -6 -9z"/>
<path d="M5280 654 c0 -14 4 -23 9 -20 5 3 7 15 4 26 -7 28 -13 25 -13 -6z"/>
<path d="M5475 670 c-3 -5 -1 -10 4 -10 6 0 11 5 11 10 0 6 -2 10 -4 10 -3 0
-8 -4 -11 -10z"/>
<path d="M5323 643 c9 -2 23 -2 30 0 6 3 -1 5 -18 5 -16 0 -22 -2 -12 -5z"/>
<path d="M5580 590 c0 -5 7 -7 15 -4 8 4 15 8 15 10 0 2 -7 4 -15 4 -8 0 -15
-4 -15 -10z"/>
<path d="M5191 563 c-1 -28 1 -30 22 -25 17 5 18 7 5 10 -9 2 -19 13 -21 25
-3 16 -5 13 -6 -10z"/>
<path d="M5291 573 c-1 -16 -9 -23 -28 -26 -18 -3 -12 -4 17 -5 25 -1 40 2 34
6 -7 4 -14 16 -17 27 -4 19 -5 18 -6 -2z"/>
<path d="M5485 570 c-3 -5 -1 -10 4 -10 6 0 11 5 11 10 0 6 -2 10 -4 10 -3 0
-8 -4 -11 -10z"/>
<path d="M5388 533 c5 -23 7 -25 10 -8 2 11 9 23 16 27 6 5 3 8 -10 8 -18 0
-20 -4 -16 -27z"/>
<path d="M5291 503 c-1 -6 -11 -13 -24 -15 -21 -3 -22 -6 -14 -47 7 -33 11
-41 19 -30 7 10 8 9 3 -7 -3 -12 2 -52 10 -90 23 -98 25 -105 37 -98 7 5 8 2
4 -5 -5 -7 -20 -12 -34 -11 -46 3 -57 1 -46 -10 6 -6 30 -7 57 -4 37 5 46 10
43 23 -3 9 -8 76 -12 149 -5 97 -10 132 -19 132 -8 0 -16 6 -18 13 -4 8 -6 9
-6 0z"/>
<path d="M5380 492 c-5 -2 -10 -10 -10 -18 0 -9 4 -12 10 -9 5 3 7 0 4 -8 -3
-8 11 -67 30 -132 20 -65 36 -124 36 -131 0 -9 -11 -14 -29 -14 -17 0 -33 -4
-36 -10 -4 -6 7 -10 27 -10 49 0 78 10 78 27 0 8 -3 12 -7 10 -5 -3 -8 25 -8
61 0 37 -4 105 -9 152 l-7 86 -35 -1 c-18 0 -38 -1 -44 -3z"/>
<path d="M851 474 c0 -11 3 -14 6 -6 3 7 2 16 -1 19 -3 4 -6 -2 -5 -13z"/>
<path d="M1670 395 c0 -8 9 -15 19 -15 22 0 51 -35 51 -62 0 -25 -36 -58 -63
-58 -49 0 -76 70 -41 104 15 16 12 36 -6 36 -6 0 -21 -18 -35 -40 l-25 -39
-41 15 c-23 8 -44 12 -47 10 -5 -6 65 -36 84 -36 7 0 20 -13 29 -30 30 -59 98
-68 146 -21 37 37 38 79 3 120 -28 33 -74 43 -74 16z"/>
<path d="M1205 339 c4 -6 25 -24 47 -40 40 -28 98 -40 98 -19 0 6 -11 10 -25
10 -30 0 -76 22 -94 44 -15 18 -36 22 -26 5z"/>
<path d="M996 306 c-4 -16 -2 -34 3 -39 15 -15 44 1 37 19 -3 9 -6 24 -6 33 0
30 -28 19 -34 -13z"/>
<path d="M1680 319 c0 -6 -7 -8 -16 -5 -8 3 -12 2 -9 -4 10 -15 35 -12 35 5 0
8 -2 15 -5 15 -3 0 -5 -5 -5 -11z"/>
<path d="M1454 302 c-41 -22 -53 -41 -54 -88 0 -93 123 -125 165 -43 20 37 19
58 -3 94 -26 42 -70 57 -108 37z m92 -96 c-3 -14 -18 -33 -32 -43 -23 -15 -29
-15 -52 -2 -52 30 -44 98 13 110 41 8 80 -28 71 -65z"/>
<path d="M1473 224 c-8 -21 13 -42 28 -27 13 13 5 43 -11 43 -6 0 -13 -7 -17
-16z"/>
<path d="M429 279 c-6 -12 -7 -25 -2 -29 9 -9 133 -24 133 -16 0 3 -27 19 -60
36 -59 30 -59 30 -71 9z"/>
<path d="M3308 268 c-2 -19 -11 -24 -48 -29 l-45 -6 47 -1 c43 -2 48 0 54 23
4 14 4 28 1 31 -3 3 -7 -5 -9 -18z"/>
<path d="M2645 269 c-16 -5 -41 -8 -55 -5 -27 5 -60 -14 -60 -34 0 -10 14 -11
56 -6 64 7 94 20 94 41 0 8 -1 15 -2 14 -2 0 -16 -5 -33 -10z"/>
<path d="M3057 258 c-11 -5 -32 -8 -48 -6 -21 3 -38 -3 -61 -23 l-33 -28 27
-1 c45 0 126 20 139 36 17 20 -1 36 -24 22z"/>
<path d="M3198 263 c12 -2 32 -2 45 0 12 2 2 4 -23 4 -25 0 -35 -2 -22 -4z"/>
<path d="M3775 227 c-20 -20 -23 -26 -10 -19 23 12 62 53 49 51 -5 -1 -22 -15
-39 -32z"/>
<path d="M3188 243 c7 -3 16 -2 19 1 4 3 -2 6 -13 5 -11 0 -14 -3 -6 -6z"/>
<path d="M820 215 c0 -14 -1 -28 -2 -32 -2 -5 7 -9 20 -11 19 -3 22 1 22 32 0
29 -4 36 -20 36 -15 0 -20 -7 -20 -25z"/>
<path d="M3768 183 c7 -3 16 -2 19 1 4 3 -2 6 -13 5 -11 0 -14 -3 -6 -6z"/>
</g>
</svg>
