<?xml version="1.0" standalone="no"?>
<!DOCTYPE svg PUBLIC "-//W3C//DTD SVG 20010904//EN"
 "http://www.w3.org/TR/2001/REC-SVG-20010904/DTD/svg10.dtd">
<svg version="1.0" xmlns="http://www.w3.org/2000/svg"
 width="117.000000pt" height="117.000000pt" viewBox="0 0 117.000000 117.000000"
 preserveAspectRatio="xMidYMid meet">

<g transform="translate(0.000000,117.000000) scale(0.100000,-0.100000)"
fill="#000000" stroke="none">
<path d="M538 998 c-9 -7 -72 -112 -140 -233 -69 -121 -146 -257 -171 -302
-56 -98 -61 -141 -21 -172 23 -18 41 -21 130 -21 l103 0 -24 25 c-15 14 -25
36 -25 53 0 43 172 346 198 350 18 3 36 -18 97 -112 41 -64 75 -121 75 -126 0
-13 -23 -13 -54 1 -56 26 -126 -23 -126 -88 0 -88 40 -106 235 -101 147 3 147
3 171 31 13 15 24 40 24 54 0 23 -296 538 -357 621 -20 26 -31 32 -62 32 -20
0 -44 -6 -53 -12z"/>
</g>
</svg>
